# xmcd
#
# Track frame offsets:
#	150
#	28552
#	45189
#	58534
#	78920
#	95515
#	108855
#	125993
#	142808
#	157208
#	167443
#
# Disc length: 2428 seconds
# Revision: 0
# Processed by: cddbd v1.5.2PL0 Copyright (c) Steve Scherf et al.
# Submitted via: dBpowerAMP V12.0
#
DISCID=83097a0b
DTITLE=Various Artist - LoneStar Beer Second Annual Bash @ The Brewery - BashMix Summer 2010
DYEAR=2010
DGENRE=Country
TTITLE0=Bob Schneider - 40 Dogs (Like Romeo And Juliet) [Live at the Paramount]
TTITLE1=Bob Schneider - The Bringdown
TTITLE2=Texas Tornados - Who's To Blame, Señorita?
TTITLE3=Band Of Heathens - L.A. County Blues
TTITLE4=Band Of Heathens - What's This World
TTITLE5=Hacienda - I Keep Waiting
TTITLE6=Hacienda - As You Like It
TTITLE7=The BlueBonnets - Can't Stop The Honey
TTITLE8=The BlueBonnets - Kopperhed
TTITLE9=Dale Watson - Truck Stop In La Grange
TTITLE10=Dale Watson - Way Down Texas Way
EXTD=
EXTT0=
EXTT1=
EXTT2=
EXTT3=
EXTT4=
EXTT5=
EXTT6=
EXTT7=
EXTT8=
EXTT9=
EXTT10=
PLAYORDER=
